<svg xmlns="http://www.w3.org/2000/svg" viewBox="0 0 100 100" width="100%" height="100%">
  <circle cx="50" cy="50" r="46" fill="#10b981" stroke="#1e293b" stroke-width="4"/>
  <!-- 紅髮馬尾 (後方) -->
  <circle cx="26" cy="38" r="10" fill="#ef4444" stroke="#1e293b" stroke-width="4"/>
  <circle cx="74" cy="38" r="10" fill="#ef4444" stroke="#1e293b" stroke-width="4"/>
  <!-- 身體 -->
  <path d="M 22 95 C 22 75, 78 75, 78 95" fill="#3b82f6" stroke="#1e293b" stroke-width="4"/>
  <!-- 脖子 -->
  <rect x="45" y="68" width="10" height="10" fill="#ffedd5" stroke="#1e293b" stroke-width="4"/>
  <!-- 頭部 -->
  <circle cx="50" cy="48" r="20" fill="#ffedd5" stroke="#1e293b" stroke-width="4"/>
  <!-- 前髮 -->
  <path d="M 30 38 Q 50 44 70 38 Q 66 30 50 30 Q 34 30 30 38 Z" fill="#ef4444" stroke="#1e293b" stroke-width="4"/>
  <!-- 眼睛 (有睫毛的逗趣眼) -->
  <circle cx="43" cy="48" r="3" fill="#1e293b"/>
  <path d="M 39 44 L 43 46" stroke="#1e293b" stroke-width="2.5" stroke-linecap="round"/>
  <circle cx="57" cy="48" r="3" fill="#1e293b"/>
  <path d="M 61 44 L 57 46" stroke="#1e293b" stroke-width="2.5" stroke-linecap="round"/>
  <!-- 腮紅 -->
  <circle cx="36" cy="54" r="3" fill="#fca5a5" opacity="0.6"/>
  <circle cx="64" cy="54" r="3" fill="#fca5a5" opacity="0.6"/>
  <!-- 嘴巴 (驚訝驚奇笑) -->
  <circle cx="50" cy="56" r="3.5" fill="#1e293b"/>
</svg>
